Patient4_TMGait_0pt8_01_left_38_EMG.mot
version=1
nRows=29
nColumns=33
inDegrees=no
endheader
time	1LAddLong	2LGlutMax	3LGlutMed	4LIliopsoas	5LSemiMemb	6LBicFemLong	7LRecFem	8LVastMed	9LVastLat	10LGasMed	11LTibAnt	12lTibPost	13LPeroneusLong	14LSol	15LExtDigLong	16LFlexDigLong	17RAddLong	18RGlutMax	19RGlutMed	20RIliopsoas	21RSemiMemb	22RBicFemLong	23RRecFem	24RVastMed	25RVastLat	26RGasMed	27RTibAnt	28RTibPost	29RPeroneusLong	30RSol	31RExtDigLong	32RFlexDigLong
43.235	0.013275	-0.063477	0.12466	-0.003204	-0.057373	-0.054626	-0.026398	-0.002289	0.063324	-0.036469	0.067902	-0.021667	0.045013	-0.027466	0.030975	0.011292	-0.012817	-0.44113	-0.21729	0.15121	0.046692	-0.036011	0.00946	-0.3035	-0.16296	-0.003357	0.35172	-0.000458	-0.33249	0.25467	-0.003052	0.001831
43.236	0.018158	-0.067291	0.093689	-0.003052	0.03479	-0.042419	-0.016022	0.006866	0.038757	-0.0177	0.012207	-0.020447	0.072632	-0.12787	0.035248	-0.011444	-0.010376	-0.40115	-0.15427	0.063934	0.03418	0.006104	0.04837	-0.25406	-0.31479	-0.004883	0.28336	-0.000916	-0.70053	0.30777	-0.003052	-0.002441
43.237	0.025482	-0.007629	0.070801	0.00885	0.037384	0.000153	-0.015259	0.01236	0.023193	-0.039215	0.007324	-0.018921	0.13367	-0.14099	0.063629	-0.007782	-0.024719	-0.42679	0.31555	-0.066376	0.033264	0.038757	-0.29159	-0.10712	-0.2214	-0.006104	0.31662	0.000153	-0.69885	0.22461	-0.00824	-0.005798
43.238	0.015717	-0.016632	0.041962	-0.002441	0.014343	0.033722	-0.014801	0.001373	0.020905	-0.041351	0.015411	-0.01236	0.14542	-0.29694	0.084381	-0.009918	-0.034485	-0.4248	0.62515	-0.051575	0.048676	0.041656	-0.5426	0.037994	0.17136	0.004272	0.52063	0.000763	-0.49561	0.067596	-0.005493	-0.005341
43.239	0.017242	0.000153	0.039215	0.010223	0.071106	0.051422	-0.018311	0.005188	0.026245	-0.023499	0.074615	-0.013733	0.054474	-0.35614	0.095367	0.010681	-0.029602	-0.38925	0.81772	-0.041351	0.036469	0.01297	-0.54443	0.10849	0.29617	0.008087	-0.22537	-0.004578	0.03418	-0.036621	-0.004425	-0.007477
43.24	0.010681	0.012054	0.059204	0.017548	0.070496	0.067902	-0.020905	0.010681	0.002899	-0.031433	0.039368	-0.012665	0.13062	-0.19379	0.080566	-0.00351	-0.007782	-0.50018	0.49469	-0.041046	0.020599	-0.020142	-0.50446	-0.11215	0.20706	-0.011902	0.044861	0.000153	0.035553	0.034332	-0.001678	-0.018005
43.241	0.005341	-0.00473	0.036316	0.026703	0.032654	0.059204	-0.02121	0.005798	0.004425	-0.05127	-0.010071	-0.015717	0.14252	-0.1683	-0.002594	0.006866	-0.015259	-0.51392	-0.15076	0.015869	0.014954	-0.015717	-0.65643	-0.1355	0.26657	-0.014038	0.44754	-0.000763	0.090332	0.15427	-0.005035	-0.020447
43.242	-0.000763	0.019989	0.006409	0.012207	-0.019989	0.042267	-0.012207	0.008392	0.005341	-0.037231	-0.044861	-0.001068	0.093079	-0.14252	-0.088501	-0.00885	-0.01358	-0.40543	-0.17105	0.084686	0.031891	0.028534	-0.52673	-0.00473	0.27023	-0.016479	0.42557	0.000305	0.31509	0.14435	-0.00351	-0.016785
43.243	-0.00412	0.013275	0.00885	0.003662	-0.002441	0.020905	-0.014496	0.010071	0.008392	-0.047455	-0.072784	-0.010834	0.037994	-0.082855	-0.058594	-0.009918	0.003204	-0.42007	0.32349	0.005951	0.024109	-0.001526	-0.31921	0.032959	0.1947	-0.004272	0.25177	-0.000458	1.5738	0.099335	0.00351	-0.018616
43.244	-0.002136	0.023499	0.002136	0.002289	0.004883	0.013885	-0.005646	0.011749	0.002594	-0.080719	-0.079346	-0.010223	0.021057	0.003662	-0.005188	-0.016479	0.020142	-0.44296	0.28153	-0.16907	-0.000763	-0.022278	-0.24246	-0.021973	0.37781	-0.014343	0.20172	0.000458	1.4581	0.26993	-0.001678	-0.006104
43.245	0.009918	0.068512	-0.003815	0.010223	0.030365	0.025635	-0.004272	0.01236	0.007935	-0.1088	0.009918	-0.014191	0.001373	0.10315	0.016174	-0.000458	0.026245	-0.36789	0.54916	-0.25604	-0.004883	-0.057068	-0.17059	0.086823	0.46097	-0.007629	0.055084	0.00061	-0.31052	0.17166	-0.001678	-0.015259
43.246	0.002441	0.078735	-0.018921	-0.011444	0.04303	-0.000916	0.002289	0.006561	-0.003815	-0.089722	0.12665	-0.005188	0.027466	0.090942	0.033112	-0.010986	0.02182	-0.39093	0.37964	-0.14252	0.002899	-0.061646	-0.17746	0.038605	0.49393	0.007019	0.034485	0.002441	-1.8932	-0.036774	0.00885	-0.012665
43.247	0.018311	0.055084	-0.034637	-0.019836	0.007935	0.004272	-0.01297	0.00885	0.005646	-0.08194	0.074158	-0.004272	0.066071	0.042419	0.045624	-0.001831	0.025635	-0.38711	-0.63812	0.014648	-0.003967	-0.04425	-0.16113	-0.11475	0.24704	-0.003815	0.12253	0.001068	-1.7432	0.044708	0.000305	-0.009003
43.248	0.01358	0.11139	-0.018311	-0.003967	-0.005493	0.015869	-0.015259	0.009155	0.006561	-0.048981	0.024872	-0.010834	0.063477	0.041656	0.063019	0.003967	0.026245	-0.3833	-0.30395	0.099945	-0.007324	-0.040588	-0.17868	-0.053253	0.13092	-0.011902	0.22232	-0.004425	-0.87051	0.12085	-0.003662	-0.010986
43.249	0.010834	0.11215	-0.03952	0.003357	0.006561	0.021057	-0.010681	0.014648	0.00885	-0.033569	0.028839	-0.008698	0.084991	-0.005493	-0.001984	0.009918	0.015259	-0.21515	0.084534	0.050049	-0.000305	-0.045013	-0.20447	-0.047607	0.071869	-0.009155	0.2002	0.000763	0.050507	0.09964	-0.000916	-0.016632
43.25	0.014343	0.094757	-0.058441	-0.007019	-0.020142	0.032654	-0.032501	0.002289	0.017853	-0.001831	0.014648	-0.006409	0.10025	-0.019379	-0.028839	0.007935	0.021515	-0.33463	0.31052	-0.12878	0.003052	-0.016022	-0.097961	-0.01709	-0.13046	-0.013275	0.10315	-0.001221	0.96237	0.10223	-0.002136	-0.011749
43.251	0.002899	0.047302	-0.045776	-0.007324	-0.015564	0.023651	-0.006561	0.006561	0.027924	0.017548	0.003967	-0.007172	0.067749	-0.039368	-0.019684	0.006104	0.00824	-0.4332	0.4184	-0.16113	0.013275	0.009308	-0.050201	0.055847	-0.43747	-0.011902	0.055389	-0.00061	0.64804	0.10895	-0.003662	-0.010376
43.252	0.006866	0.083771	-0.011139	0.027466	0.039368	0.02182	-0.008392	0.006561	0.021362	0.010071	-0.003357	-0.005188	0.041199	-0.027161	-0.012665	0.005951	0.027771	-0.41351	0.42862	-0.013885	0.00885	0.00061	-0.068817	0.055084	-0.51056	-0.012665	0.002441	-0.002441	-0.023041	0.1387	0.00061	-0.007019
43.253	0.001678	0.10956	-0.051117	0.003357	0.036011	0.059357	-0.031738	0.007324	0.031586	-0.031433	0	-0.006256	0.026703	-0.021057	0.000916	0.005646	0.028076	-0.39734	0.39749	0.168	0.072327	-0.048523	-0.10574	0.068817	-0.24887	-0.014648	-0.069427	-0.003052	-0.33402	0.087433	-0.005646	-0.010223
43.254	0.00824	0.09964	-0.060577	0.000153	-0.000763	0.068512	-0.049896	0.008545	0.030365	-0.024567	0.016785	-0.005646	0.025635	-0.05127	0.005646	0.013885	0.036316	-0.35416	-0.03952	0.354	0.045624	-0.11368	-0.082245	-0.007935	-0.09903	-0.010376	-0.16205	-0.001831	0.0354	0.028381	-0.000305	-0.017242
43.255	0.005646	0.090179	-0.049286	-0.00061	-0.043182	0.034943	-0.050964	0.016174	0.037994	0.000458	0.053253	-0.01297	0.03418	-0.064087	0.030212	0.01358	0.039978	-0.39825	-0.66345	0.2655	-0.071259	-0.098267	-0.17899	-0.065002	-0.085907	-0.010529	-0.10895	-0.003662	0.076904	-0.037079	-0.004272	-0.010376
43.256	0.005798	0.083618	-0.012054	-0.011749	-0.090027	-0.016327	-0.052338	0.006561	0.034332	0.008392	0.045776	-0.000763	0.035248	-0.086975	0.014038	0.009918	0.057831	-0.30823	-0.59876	0.11719	-0.035553	-0.097961	-0.13657	-0.1973	-0.050964	0.004425	0.06958	-0.001984	0.2504	-0.050201	-0.00946	-0.004883
43.257	0.025482	0.091858	-0.012207	-0.00946	0.019836	-0.033264	-0.084076	0.002441	0.041656	-0.010986	-0.027008	0.000153	0.075226	-0.069427	-0.013123	0.001068	0.023346	-0.3067	0.85175	-0.043488	-0.040894	-0.010376	-0.081177	-0.11444	-0.032959	-0.007782	0.10819	-0.000153	0.24002	0.001068	-0.004578	-0.014801
43.258	0.020752	0.13229	-0.027924	-0.020142	0.07431	-0.013733	-0.080261	0.007019	0.047455	-0.020905	-0.024719	0.007782	0.067902	-0.053253	-0.015717	-0.002136	-0.023041	-0.31052	0.83221	-0.058746	-0.38193	0.103	-0.1648	0.010986	-0.00946	-0.007172	0.028839	-0.001526	0.30853	-0.011749	-0.000458	-0.016785
43.259	0.015564	0.13245	-0.017853	-0.007172	0.021973	0.014343	-0.077362	0.005493	0.050812	-0.031891	0.027161	-0.010376	0.058899	-0.061035	0.003204	0.003662	-0.042572	-0.31815	0.29663	0.019836	-0.10513	-0.084534	-0.1506	0.017853	-0.014496	-0.00412	0.1265	-0.001068	0.21606	0.01236	-0.007782	-0.013428
43.26	0.013733	0.084534	-0.005951	0.03006	0.031738	0.031281	-0.063629	0.005951	0.04364	-0.028076	0.061188	-0.003052	0.051727	-0.054016	0.003815	0.007172	-0.02533	-0.42099	-0.20798	0.011139	0.14664	-0.08667	-0.03952	-0.033112	-0.038605	-0.001984	-0.20187	-0.000153	0.021362	-0.056915	-0.002441	-0.011597
43.261	-0.00824	0.071716	-0.018158	0.031586	-0.001068	0.039673	-0.082092	-0.001068	0.057068	-0.045166	0.016479	-0.007477	0.039978	-0.065613	-0.000458	0.009308	-0.035706	-0.39795	-0.88333	0.11841	0.064392	0.034943	0.049591	-0.046844	-0.057678	-0.016174	-0.18738	0.000305	-0.27008	-0.11368	0.001068	-0.019836
43.262	-0.014801	0.068207	-0.05722	0.011292	-0.031738	0.029907	-0.084381	-0.00351	0.067749	-0.05127	-0.015717	-0.001831	0.041046	-0.060425	0.006256	-0.004883	-0.042419	-0.36789	-0.39749	0.037994	-0.055847	0.10223	0.13947	-0.048523	-0.064087	-0.018311	-0.062561	-0.005798	-0.23331	-0.10971	0.000153	-0.02182
43.263	-0.006866	0.081177	-0.006714	0.015564	-0.056915	0.005493	-0.085144	0.006104	0.065002	-0.041809	-0.013123	0	0.066376	-0.098724	0.00351	0.00473	-0.020447	-0.35065	0.22873	-0.030975	-0.085754	0.10452	0.19272	-0.11795	-0.067749	-0.015717	0.20844	-0.003967	-0.14618	-0.17364	-0.002441	-0.025787
